<?xml version="1.0" encoding="iso-8859-1"?>
<!-- Generator: Adobe Illustrator 16.0.0, SVG Export Plug-In . SVG Version: 6.00 Build 0)  -->
<!DOCTYPE svg PUBLIC "-//W3C//DTD SVG 1.1//EN" "http://www.w3.org/Graphics/SVG/1.1/DTD/svg11.dtd">
<svg version="1.1" id="Capa_1" xmlns="http://www.w3.org/2000/svg" xmlns:xlink="http://www.w3.org/1999/xlink" x="0px" y="0px"
	 width="370.589px" height="370.589px" viewBox="0 0 370.589 370.589" style="enable-background:new 0 0 370.589 370.589;"
	 xml:space="preserve" fill="#808080">
<g>
	<g>
		<path d="M5.806,224.753c-7.741,7.741-7.741,20.291,0.002,28.034l10.114,10.114l24.18-9.46L30.99,277.97l50.811,50.812
			l39.014-22.66l-19.858,41.815l16.843,16.844c7.743,7.743,20.293,7.743,28.034,0.002l91.812-91.812L97.618,132.941L5.806,224.753z"
			/>
		<path d="M358.83,11.841l-0.082-0.083c-9.66-9.66-21.981-13.478-35.631-11.043c-27.59,4.924-56.519,34.861-77.384,80.087
			c-5.788,12.546-13.997,19.607-25.101,21.588c-21.311,3.803-48.293-11.741-64.344-27.792c-3.362-3.362-8.814-3.361-12.176,0.001
			l-16.685,16.686l24.651,24.651c3.202,3.202,3.202,8.392,0,11.594c-3.202,3.202-8.393,3.202-11.594,0l-24.651-24.651l-6.178,6.178
			c-3.364,3.364-3.364,8.815-0.002,12.178l139.703,139.703c3.361,3.361,8.812,3.36,12.177-0.002l34.458-34.458
			c3.361-3.362,3.362-8.814,0.001-12.177c-16.051-16.051-31.595-43.034-27.792-64.344c1.98-11.103,9.042-19.312,21.588-25.1
			c45.226-20.865,75.163-49.793,80.087-77.383C372.309,33.822,368.49,21.501,358.83,11.841z M343.056,48.746
			c-5.857,5.857-15.354,5.857-21.213,0c-5.856-5.858-5.856-15.355,0-21.213c5.858-5.858,15.355-5.858,21.213,0
			C348.914,33.391,348.914,42.888,343.056,48.746z"/>
	</g>
</g>
<g>
</g>
<g>
</g>
<g>
</g>
<g>
</g>
<g>
</g>
<g>
</g>
<g>
</g>
<g>
</g>
<g>
</g>
<g>
</g>
<g>
</g>
<g>
</g>
<g>
</g>
<g>
</g>
<g>
</g>
</svg>
